<svg width="19" height="18" viewBox="0 0 19 18" fill="none" xmlns="http://www.w3.org/2000/svg">
<path d="M9.28003 10.125C8.72377 10.125 8.18 9.96005 7.71749 9.65101C7.25498 9.34197 6.89449 8.90272 6.68162 8.3888C6.46875 7.87488 6.41305 7.30938 6.52157 6.76381C6.63009 6.21824 6.89796 5.7171 7.29129 5.32376C7.68463 4.93043 8.18577 4.66256 8.73134 4.55404C9.27691 4.44552 9.84241 4.50122 10.3563 4.71409C10.8702 4.92696 11.3095 5.28745 11.6185 5.74996C11.9276 6.21247 12.0925 6.75624 12.0925 7.3125C12.0916 8.05815 11.795 8.773 11.2678 9.30025C10.7405 9.82751 10.0257 10.1241 9.28003 10.125ZM9.28003 5.625C8.94627 5.625 8.62001 5.72397 8.34251 5.9094C8.065 6.09482 7.84871 6.35837 7.72098 6.66672C7.59326 6.97507 7.55984 7.31437 7.62496 7.64172C7.69007 7.96906 7.85079 8.26974 8.08679 8.50574C8.32279 8.74174 8.62347 8.90246 8.95082 8.96758C9.27816 9.03269 9.61746 8.99927 9.92581 8.87155C10.2342 8.74382 10.4977 8.52753 10.6831 8.25003C10.8686 7.97252 10.9675 7.64626 10.9675 7.3125C10.9671 6.86509 10.7892 6.43612 10.4728 6.11975C10.1564 5.80338 9.72745 5.62545 9.28003 5.625Z" fill="white"/>
<path d="M9.28004 16.875L4.53479 11.2787C4.46885 11.1947 4.4036 11.1101 4.33904 11.025C3.52846 9.95725 3.09057 8.65306 3.09254 7.3125C3.09254 5.67147 3.74443 4.09766 4.90481 2.93728C6.06519 1.7769 7.63901 1.125 9.28004 1.125C10.9211 1.125 12.4949 1.7769 13.6553 2.93728C14.8156 4.09766 15.4675 5.67147 15.4675 7.3125C15.4695 8.65245 15.0318 9.95605 14.2216 11.0233L14.221 11.025C14.221 11.025 14.0523 11.2466 14.027 11.2764L9.28004 16.875ZM5.23679 10.3472C5.23791 10.3472 5.36841 10.5204 5.39822 10.5576L9.28004 15.1358L13.1669 10.5514C13.1917 10.5204 13.3233 10.3461 13.3238 10.3455C13.986 9.47313 14.3438 8.4077 14.3425 7.3125C14.3425 5.96984 13.8092 4.68217 12.8598 3.73277C11.9104 2.78337 10.6227 2.25 9.28004 2.25C7.93738 2.25 6.64971 2.78337 5.70031 3.73277C4.7509 4.68217 4.21754 5.96984 4.21754 7.3125C4.21636 8.40838 4.5746 9.47442 5.23735 10.3472H5.23679Z" fill="white"/>
</svg>
