<svg width="215" height="31" viewBox="0 0 215 31" fill="none" xmlns="http://www.w3.org/2000/svg">
<path d="M0.2 30V0.279999H6.36L16.8 16.84V0.279999H24.56V30H18.4L7.96 13.44V30H0.2ZM41.11 30.24C39.0033 30.24 37.15 30.04 35.55 29.64C33.9767 29.2133 32.6567 28.4667 31.59 27.4C30.5233 26.3333 29.7233 24.8133 29.19 22.84C28.6567 20.84 28.39 18.2667 28.39 15.12C28.39 11.9733 28.6567 9.41333 29.19 7.44C29.7233 5.44 30.5233 3.90666 31.59 2.84C32.6567 1.77333 33.9767 1.04 35.55 0.639999C37.15 0.213331 39.0033 -2.38419e-06 41.11 -2.38419e-06C43.2167 -2.38419e-06 45.0567 0.213331 46.63 0.639999C48.23 1.04 49.5633 1.77333 50.63 2.84C51.6967 3.90666 52.4967 5.44 53.03 7.44C53.5633 9.41333 53.83 11.9733 53.83 15.12C53.83 18.2667 53.5633 20.84 53.03 22.84C52.4967 24.8133 51.6967 26.3333 50.63 27.4C49.5633 28.4667 48.23 29.2133 46.63 29.64C45.0567 30.04 43.2167 30.24 41.11 30.24ZM41.11 23.28C42.1233 23.28 42.95 23.16 43.59 22.92C44.23 22.68 44.7233 22.2667 45.07 21.68C45.4433 21.0933 45.6967 20.2667 45.83 19.2C45.99 18.1333 46.07 16.7733 46.07 15.12C46.07 13.3867 45.99 11.9867 45.83 10.92C45.6967 9.85333 45.4433 9.04 45.07 8.48C44.7233 7.89333 44.23 7.49333 43.59 7.28C42.95 7.06667 42.1233 6.96 41.11 6.96C40.1233 6.96 39.2967 7.06667 38.63 7.28C37.99 7.49333 37.4833 7.89333 37.11 8.48C36.7633 9.04 36.51 9.85333 36.35 10.92C36.2167 11.9867 36.15 13.3867 36.15 15.12C36.15 16.7733 36.2167 18.1333 36.35 19.2C36.51 20.2667 36.7633 21.0933 37.11 21.68C37.4833 22.2667 37.99 22.68 38.63 22.92C39.2967 23.16 40.1233 23.28 41.11 23.28ZM57.6703 30V0.279999H63.8303L74.2703 16.84V0.279999H82.0303V30H75.8703L65.4303 13.44V30H57.6703ZM92.5403 30V7.24H85.0603V0.279999H107.78V7.24H100.3V30H92.5403ZM122.569 30.24C120.463 30.24 118.609 30.04 117.009 29.64C115.436 29.2133 114.116 28.4667 113.049 27.4C111.983 26.3333 111.183 24.8133 110.649 22.84C110.116 20.84 109.849 18.2667 109.849 15.12C109.849 11.9733 110.116 9.41333 110.649 7.44C111.183 5.44 111.983 3.90666 113.049 2.84C114.116 1.77333 115.436 1.04 117.009 0.639999C118.609 0.213331 120.463 -2.38419e-06 122.569 -2.38419e-06C124.676 -2.38419e-06 126.516 0.213331 128.089 0.639999C129.689 1.04 131.023 1.77333 132.089 2.84C133.156 3.90666 133.956 5.44 134.489 7.44C135.023 9.41333 135.289 11.9733 135.289 15.12C135.289 18.2667 135.023 20.84 134.489 22.84C133.956 24.8133 133.156 26.3333 132.089 27.4C131.023 28.4667 129.689 29.2133 128.089 29.64C126.516 30.04 124.676 30.24 122.569 30.24ZM122.569 23.28C123.583 23.28 124.409 23.16 125.049 22.92C125.689 22.68 126.183 22.2667 126.529 21.68C126.903 21.0933 127.156 20.2667 127.289 19.2C127.449 18.1333 127.529 16.7733 127.529 15.12C127.529 13.3867 127.449 11.9867 127.289 10.92C127.156 9.85333 126.903 9.04 126.529 8.48C126.183 7.89333 125.689 7.49333 125.049 7.28C124.409 7.06667 123.583 6.96 122.569 6.96C121.583 6.96 120.756 7.06667 120.089 7.28C119.449 7.49333 118.943 7.89333 118.569 8.48C118.223 9.04 117.969 9.85333 117.809 10.92C117.676 11.9867 117.609 13.3867 117.609 15.12C117.609 16.7733 117.676 18.1333 117.809 19.2C117.969 20.2667 118.223 21.0933 118.569 21.68C118.943 22.2667 119.449 22.68 120.089 22.92C120.756 23.16 121.583 23.28 122.569 23.28ZM139.13 30V0.279999H145.29L155.73 16.84V0.279999H163.49V30H157.33L146.89 13.44V30H139.13Z" fill="white"/>
<path d="M168.76 19.4C168.12 19.4 167.8 19.0933 167.8 18.48V13.8C167.8 13.1333 168.12 12.8 168.76 12.8H173.28C173.946 12.8 174.28 13.1333 174.28 13.8V18.48C174.28 18.8267 174.186 19.0667 174 19.2C173.813 19.3333 173.573 19.4 173.28 19.4H168.76ZM178.553 30V0.279999H186.313V30H178.553ZM190.902 30V0.279999H204.022C206.182 0.279999 207.955 0.666665 209.342 1.44C210.728 2.18666 211.822 3.24 212.622 4.6C213.422 5.96 213.982 7.54666 214.302 9.36C214.622 11.1467 214.782 13.08 214.782 15.16C214.782 18.6533 214.382 21.4933 213.582 23.68C212.808 25.84 211.622 27.44 210.022 28.48C208.448 29.4933 206.448 30 204.022 30H190.902ZM198.662 23.04H203.222C204.208 23.04 204.968 22.7733 205.502 22.24C206.062 21.7067 206.448 20.8667 206.662 19.72C206.902 18.5467 207.022 17.0267 207.022 15.16C207.022 13.4 206.928 12 206.742 10.96C206.582 9.89333 206.328 9.09333 205.982 8.56C205.662 8.02667 205.262 7.68 204.782 7.52C204.328 7.33333 203.808 7.24 203.222 7.24H198.662V23.04Z" fill="#FFDE33"/>
</svg>
